<svg id="Layer_1" data-name="Layer 1" xmlns="http://www.w3.org/2000/svg" viewBox="0 0 65 65"><defs><style>.cls-1{fill:#fff;}</style></defs><path class="cls-1" d="M12.61,41.1,8.19,39.39a2.93,2.93,0,0,1-1.86-2.84,1.61,1.61,0,0,1,1.1-1.79c2.1-.93,4.17-1.92,6.33-2.93-.21-.16-.3-.29-.42-.32-5.87-1.45-9.58-7.13-7.13-14.68A13.76,13.76,0,0,1,20,7.46c4.67.13,9.34.35,14,.53a3.31,3.31,0,0,1,.53.15c-.51,1.55-1.91,1-2.86,1.24a33.53,33.53,0,0,1-3.56.58c.52.8,1,1.47,1.43,2.2,4.36,8-.35,17.43-9.54,19.3a53,53,0,0,0-6.46,2,7.22,7.22,0,0,0-1.88,1.08c-1.15.87-1.12,1.78.24,2.21,2.15.68,4.38,1.12,6.59,1.59,3.38.71,6.87,1.07,10.16,2.09C34.54,42.24,36.1,48,32,52.59a15.78,15.78,0,0,1-5.6,3.92,26.57,26.57,0,0,1-18,.68A11.82,11.82,0,0,1,4.8,55.35,5.34,5.34,0,0,1,4.24,47,55.52,55.52,0,0,1,10,42.72C10.8,42.16,11.65,41.7,12.61,41.1ZM25.89,19.53a61.91,61.91,0,0,0-1.65-6.85,5.5,5.5,0,0,0-4.91-3.9,5.93,5.93,0,0,0-6,3,15.65,15.65,0,0,0-.85,14.8,6,6,0,0,0,5.63,3.87A5.94,5.94,0,0,0,24,26.55,61,61,0,0,0,25.89,19.53ZM17.8,57.34l.11-.37a12.77,12.77,0,0,0,7.53-2.09c2.22-1.5,3.58-3.51,3.25-6.32-.3-2.63-2.17-4-4.41-4.63C21.2,43,18,42.41,14.89,41.72a1.87,1.87,0,0,0-1.24.25c-2.36,1.52-4.35,3.4-5.13,6.2a5.93,5.93,0,0,0,3.16,7.31A41.67,41.67,0,0,0,17.8,57.34Z"/><path class="cls-1" d="M52.22,30.89H48.66V20.5H38.33V17H48.66V6.57h3.46V17H62.5V20.4H52.22Z"/></svg>